<svg width="101.000000" height="32.000000" viewBox="0 0 101 32" fill="none" xmlns="http://www.w3.org/2000/svg" xmlns:xlink="http://www.w3.org/1999/xlink">
	<desc>
			Created with Pixso.
	</desc>
	<defs>
		<clipPath id="clip5_49">
			<rect id="Icon" width="101.000000" height="32.000000" fill="white" fill-opacity="0"/>
		</clipPath>
		<radialGradient id="paint_radial_5_50_0" cx="0.000000" cy="0.000000" r="1.000000" gradientUnits="userSpaceOnUse" gradientTransform="translate(8 36) rotate(90) scale(110.5 110.5)">
			<stop stop-color="#050403"/>
			<stop offset="1.000000" stop-color="#050403" stop-opacity="0.000000"/>
		</radialGradient>
	</defs>
	<rect id="Icon" width="101.000000" height="32.000000" fill="#FFFFFF" fill-opacity="0"/>
	<g clip-path="url(#clip5_49)">
		<path id="Vector" d="M-101.5 36C-101.5 -24.4756 -52.4752 -73.5 8 -73.5C68.4752 -73.5 117.5 -24.4756 117.5 36C117.5 96.4756 68.4752 145.5 8 145.5C-52.4752 145.5 -101.5 96.4756 -101.5 36ZM8 -74.5C-53.0275 -74.5 -102.5 -25.0273 -102.5 36C-102.5 97.0273 -53.0275 146.5 8 146.5C69.0275 146.5 118.5 97.0273 118.5 36C118.5 -25.0273 69.0275 -74.5 8 -74.5ZM8 -65.5C-48.0569 -65.5 -93.5 -20.0566 -93.5 36C-93.5 92.0566 -48.0569 137.5 8 137.5C64.0569 137.5 109.5 92.0566 109.5 36C109.5 -20.0566 64.0569 -65.5 8 -65.5ZM-94.5 36C-94.5 -20.6094 -48.6092 -66.5 8 -66.5C64.6092 -66.5 110.5 -20.6094 110.5 36C110.5 92.6094 64.6092 138.5 8 138.5C-48.6092 138.5 -94.5 92.6094 -94.5 36ZM-85.5 36C-85.5 -15.6387 -43.6386 -57.5 8 -57.5C59.6386 -57.5 101.5 -15.6387 101.5 36C101.5 87.6387 59.6386 129.5 8 129.5C-43.6386 129.5 -85.5 87.6387 -85.5 36ZM8 -58.5C-44.1909 -58.5 -86.5 -16.1904 -86.5 36C-86.5 88.1904 -44.1909 130.5 8 130.5C60.1909 130.5 102.5 88.1904 102.5 36C102.5 -16.1904 60.1909 -58.5 8 -58.5ZM8 -49.5C-39.2203 -49.5 -77.5 -11.2207 -77.5 36C-77.5 83.2207 -39.2203 121.5 8 121.5C55.2204 121.5 93.5 83.2207 93.5 36C93.5 -11.2207 55.2204 -49.5 8 -49.5ZM-78.5 36C-78.5 -11.7725 -39.7726 -50.5 8 -50.5C55.7726 -50.5 94.5 -11.7725 94.5 36C94.5 83.7725 55.7726 122.5 8 122.5C-39.7726 122.5 -78.5 83.7725 -78.5 36ZM-69.5 36C-69.5 -6.80176 -34.8021 -41.5 8 -41.5C50.8021 -41.5 85.5 -6.80176 85.5 36C85.5 78.8018 50.8021 113.5 8 113.5C-34.8021 113.5 -69.5 78.8018 -69.5 36ZM8 -42.5C-35.3544 -42.5 -70.5 -7.35449 -70.5 36C-70.5 79.3545 -35.3544 114.5 8 114.5C51.3544 114.5 86.5 79.3545 86.5 36C86.5 -7.35449 51.3544 -42.5 8 -42.5ZM8 -33.5C-30.3838 -33.5 -61.5 -2.38379 -61.5 36C-61.5 74.3838 -30.3838 105.5 8 105.5C46.3838 105.5 77.5 74.3838 77.5 36C77.5 -2.38379 46.3838 -33.5 8 -33.5ZM-62.5 36C-62.5 -2.93555 -30.9361 -34.5 8 -34.5C46.9361 -34.5 78.5 -2.93555 78.5 36C78.5 74.9365 46.9361 106.5 8 106.5C-30.9361 106.5 -62.5 74.9365 -62.5 36ZM-53.5 36C-53.5 2.03418 -25.9655 -25.5 8 -25.5C41.9655 -25.5 69.5 2.03418 69.5 36C69.5 69.9658 41.9655 97.5 8 97.5C-25.9655 97.5 -53.5 69.9658 -53.5 36ZM8 -26.5C-26.5178 -26.5 -54.5 1.48242 -54.5 36C-54.5 70.5176 -26.5178 98.5 8 98.5C42.5178 98.5 70.5 70.5176 70.5 36C70.5 1.48242 42.5178 -26.5 8 -26.5ZM8 -17.5C-21.5472 -17.5 -45.5 6.45312 -45.5 36C-45.5 65.5469 -21.5472 89.5 8 89.5C37.5472 89.5 61.5 65.5469 61.5 36C61.5 6.45312 37.5472 -17.5 8 -17.5ZM-46.5 36C-46.5 5.90039 -22.0995 -18.5 8 -18.5C38.0995 -18.5 62.5 5.90039 62.5 36C62.5 66.0996 38.0995 90.5 8 90.5C-22.0995 90.5 -46.5 66.0996 -46.5 36ZM-37.5 36C-37.5 10.8711 -17.129 -9.5 8 -9.5C33.129 -9.5 53.5 10.8711 53.5 36C53.5 61.1289 33.129 81.5 8 81.5C-17.129 81.5 -37.5 61.1289 -37.5 36ZM8 -10.5C-17.6812 -10.5 -38.5 10.3184 -38.5 36C-38.5 61.6816 -17.6812 82.5 8 82.5C33.6812 82.5 54.5 61.6816 54.5 36C54.5 10.3184 33.6812 -10.5 8 -10.5ZM8 -1.5C-12.7107 -1.5 -29.5 15.2891 -29.5 36C-29.5 56.7109 -12.7107 73.5 8 73.5C28.7107 73.5 45.5 56.7109 45.5 36C45.5 15.2891 28.7107 -1.5 8 -1.5ZM-30.5 36C-30.5 14.7373 -13.263 -2.5 8 -2.5C29.263 -2.5 46.5 14.7373 46.5 36C46.5 57.2627 29.263 74.5 8 74.5C-13.263 74.5 -30.5 57.2627 -30.5 36ZM-21.5 36C-21.5 19.708 -8.29242 6.5 8 6.5C24.2924 6.5 37.5 19.708 37.5 36C37.5 52.292 24.2924 65.5 8 65.5C-8.29242 65.5 -21.5 52.292 -21.5 36ZM8 5.5C-8.8447 5.5 -22.5 19.1553 -22.5 36C-22.5 52.8447 -8.8447 66.5 8 66.5C24.8447 66.5 38.5 52.8447 38.5 36C38.5 19.1553 24.8447 5.5 8 5.5ZM-13.5 36C-13.5 24.126 -3.87408 14.5 8 14.5C19.8741 14.5 29.5 24.126 29.5 36C29.5 47.874 19.8741 57.5 8 57.5C-3.87408 57.5 -13.5 47.874 -13.5 36ZM8 13.5C-4.42639 13.5 -14.5 23.5732 -14.5 36C-14.5 48.4268 -4.42639 58.5 8 58.5C20.4264 58.5 30.5 48.4268 30.5 36C30.5 23.5732 20.4264 13.5 8 13.5ZM8 22.5C0.544189 22.5 -5.5 28.5439 -5.5 36C-5.5 43.4561 0.544189 49.5 8 49.5C15.4558 49.5 21.5 43.4561 21.5 36C21.5 28.5439 15.4558 22.5 8 22.5ZM-6.5 36C-6.5 27.9922 -0.00811768 21.5 8 21.5C16.0081 21.5 22.5 27.9922 22.5 36C22.5 44.0078 16.0081 50.5 8 50.5C-0.00811768 50.5 -6.5 44.0078 -6.5 36ZM2.5 36C2.5 32.9629 4.9624 30.5 8 30.5C11.0376 30.5 13.5 32.9629 13.5 36C13.5 39.0371 11.0376 41.5 8 41.5C4.9624 41.5 2.5 39.0371 2.5 36ZM8 29.5C4.4101 29.5 1.5 32.4102 1.5 36C1.5 39.5898 4.4101 42.5 8 42.5C11.5899 42.5 14.5 39.5898 14.5 36C14.5 32.4102 11.5899 29.5 8 29.5Z" fill="url(#paint_radial_5_50_0)" fill-opacity="0.040000" fill-rule="evenodd"/>
		<mask id="mask5_55" mask-type="alpha" maskUnits="userSpaceOnUse" x="-0.000031" y="0.000000" width="32.000000" height="32.000000">
			<path id="Vector" d="M-3.05176e-05 0L32 0L32 32L-3.05176e-05 32L-3.05176e-05 0Z" fill="#000000" fill-opacity="1.000000" fill-rule="nonzero"/>
		</mask>
		<g mask="url(#mask5_55)">
			<path id="Vector" d="M7.99997 38C-4.1503 38 -14 28.1504 -14 16C-14 3.84961 -4.1503 -6 7.99997 -6C20.1502 -6 30 3.84961 30 16C30 28.1504 20.1502 38 7.99997 38Z" stroke="#FFFFFF" stroke-opacity="1.000000" stroke-width="4.000000"/>
			<path id="Vector" d="M7.99997 30C0.267975 30 -6.00003 23.7324 -6.00003 16C-6.00003 8.26758 0.267975 2 7.99997 2C15.732 2 22 8.26758 22 16C22 23.7324 15.732 30 7.99997 30Z" stroke="#FFFFFF" stroke-opacity="1.000000" stroke-width="4.000000"/>
			<path id="Vector" d="M7.99997 22C4.68625 22 1.99997 19.3135 1.99997 16C1.99997 12.6865 4.68625 10 7.99997 10C11.3137 10 14 12.6865 14 16C14 19.3135 11.3137 22 7.99997 22Z" stroke="#FFFFFF" stroke-opacity="1.000000" stroke-width="4.000000"/>
		</g>
		<path id="Vector" d="M49.518 8.59961L59.704 8.59961L59.704 10.8438L52.092 10.8438L52.092 14.8916L58.274 14.8916L58.274 17.1357L52.092 17.1357L52.092 24L49.518 24L49.518 8.59961ZM65.5099 24.1758C64.4099 24.1758 63.4273 23.9336 62.5619 23.4502C61.6966 22.9512 61.0146 22.2695 60.5159 21.4043C60.0319 20.5381 59.7899 19.5557 59.7899 18.4561C59.7899 17.3555 60.0319 16.373 60.5159 15.5078C61.0146 14.6426 61.6966 13.9678 62.5619 13.4834C63.4273 12.9854 64.4099 12.7354 65.5099 12.7354C66.6099 12.7354 67.5926 12.9854 68.4579 13.4834C69.3233 13.9678 69.9979 14.6426 70.4819 15.5078C70.9806 16.373 71.2299 17.3555 71.2299 18.4561C71.2299 19.5557 70.9806 20.5381 70.4819 21.4043C69.9979 22.2695 69.3233 22.9512 68.4579 23.4502C67.5926 23.9336 66.6099 24.1758 65.5099 24.1758ZM65.5099 22.0859C66.1553 22.0859 66.7273 21.9316 67.2259 21.624C67.7246 21.3154 68.1133 20.8906 68.3919 20.3477C68.6706 19.791 68.8099 19.1602 68.8099 18.4561C68.8099 17.752 68.6706 17.1289 68.3919 16.5859C68.1133 16.0283 67.7246 15.5957 67.2259 15.2881C66.7273 14.9795 66.1553 14.8262 65.5099 14.8262C64.8646 14.8262 64.2926 14.9795 63.7939 15.2881C63.2953 15.5957 62.9066 16.0215 62.6279 16.5635C62.3493 17.1064 62.2099 17.7373 62.2099 18.4561C62.2099 19.1748 62.3493 19.8047 62.6279 20.3477C62.9066 20.8906 63.2953 21.3154 63.7939 21.624C64.2926 21.9316 64.8646 22.0859 65.5099 22.0859ZM78.3084 24.1758C77.2231 24.1758 76.2551 23.9414 75.4044 23.4717C74.5538 22.9883 73.8938 22.3135 73.4244 21.4482C72.9698 20.583 72.7424 19.585 72.7424 18.4561C72.7424 17.3262 72.9698 16.3291 73.4244 15.4639C73.8938 14.5986 74.5538 13.9307 75.4044 13.4619C76.2551 12.9775 77.2231 12.7354 78.3084 12.7354C79.6578 12.7354 80.7871 13.0732 81.6964 13.748C82.6204 14.4229 83.1778 15.332 83.3684 16.4756L81.0364 16.9375C80.9191 16.3066 80.6184 15.8008 80.1344 15.4199C79.6504 15.0234 79.0638 14.8262 78.3744 14.8262C77.4211 14.8262 76.6584 15.1562 76.0864 15.8154C75.5144 16.4756 75.2284 17.3555 75.2284 18.4561C75.2284 19.5557 75.5144 20.4355 76.0864 21.0957C76.6584 21.7559 77.4211 22.0859 78.3744 22.0859C79.0784 22.0859 79.6651 21.9023 80.1344 21.5361C80.6038 21.1689 80.9044 20.6631 81.0364 20.0176L83.3904 20.4795C83.1558 21.624 82.5838 22.5254 81.6744 23.1855C80.7798 23.8457 79.6578 24.1758 78.3084 24.1758ZM92.0086 16.8281C92.0086 16.1387 91.7886 15.6035 91.3486 15.2217C90.9233 14.8262 90.3439 14.6279 89.6106 14.6279C88.9359 14.6279 88.3786 14.8184 87.9386 15.2002C87.4986 15.5811 87.2419 16.0947 87.1686 16.7402L85.0126 16.3438C85.1886 15.2588 85.7019 14.3857 86.5526 13.7256C87.4033 13.0654 88.4226 12.7354 89.6106 12.7354C90.5493 12.7354 91.3706 12.9043 92.0746 13.2422C92.7933 13.5791 93.3506 14.0781 93.7466 14.7383C94.1573 15.3975 94.3626 16.1826 94.3626 17.0918L94.3626 24L92.0086 24L92.0086 16.8281ZM88.5326 24.1758C87.8139 24.1758 87.1686 24.0361 86.5966 23.7578C86.0393 23.4795 85.5993 23.0908 85.2766 22.5918C84.9686 22.0928 84.8146 21.5283 84.8146 20.8975C84.8146 19.8271 85.2326 18.9912 86.0686 18.3896C86.9193 17.7734 88.2026 17.3779 89.9186 17.2021L92.2286 16.96L92.2286 18.7422L89.8966 19.0059C88.9873 19.0938 88.3053 19.2988 87.8506 19.6221C87.3959 19.9443 87.1686 20.3477 87.1686 20.832C87.1686 21.2715 87.3373 21.6309 87.6746 21.9102C88.0119 22.1885 88.4593 22.3281 89.0166 22.3281C89.9553 22.3281 90.6886 22.0342 91.2166 21.4482C91.7593 20.8467 92.0233 20.0693 92.0086 19.1162L92.0746 22.1738C91.7813 22.7754 91.3046 23.2588 90.6446 23.626C89.9993 23.9922 89.2953 24.1758 88.5326 24.1758ZM97.0715 8.42383L99.4695 8.42383L99.4695 24L97.0715 24L97.0715 8.42383Z" fill="#FFFFFF" fill-opacity="1.000000" fill-rule="nonzero"/>
	</g>
</svg>
