<svg width="100.000000" height="32.000000" viewBox="0 0 100 32" fill="none" xmlns="http://www.w3.org/2000/svg" xmlns:xlink="http://www.w3.org/1999/xlink">
	<desc>
			Created with Pixso.
	</desc>
	<defs>
		<clipPath id="clip5_1272">
			<rect id="Image [logo-symbol]" width="32.000000" height="32.000000" fill="white" fill-opacity="0"/>
		</clipPath>
	</defs>
	<path id="Focal" d="M49.6845 24L52.0026 24L52.0026 17.3084L58.5191 17.3084L58.5191 15.3251L52.0026 15.3251L52.0026 10.6477L59.2042 10.6477L59.2042 8.65408L49.6845 8.65408L49.6845 24ZM65.7657 24.2318C69.0111 24.2318 71.1334 21.857 71.1334 18.2974C71.1334 14.7172 69.0111 12.3425 65.7657 12.3425C62.5255 12.3425 60.4031 14.7172 60.4031 18.2974C60.4031 21.857 62.5255 24.2318 65.7657 24.2318ZM65.776 22.3516C63.6537 22.3516 62.6646 20.5022 62.6646 18.2923C62.6646 16.0875 63.6537 14.2124 65.776 14.2124C67.8829 14.2124 68.872 16.0875 68.872 18.2923C68.872 20.5022 67.8829 22.3516 65.776 22.3516ZM78.3637 24.2318C81.0836 24.2318 82.8454 22.5988 83.0926 20.358L80.9136 20.358C80.6303 21.6046 79.6618 22.3361 78.3791 22.3361C76.4834 22.3361 75.2625 20.7546 75.2625 18.2459C75.2625 15.7784 76.5092 14.2279 78.3791 14.2279C79.806 14.2279 80.6715 15.1293 80.9136 16.206L83.0926 16.206C82.8557 13.8827 80.96 12.3425 78.3431 12.3425C75.0977 12.3425 73.0011 14.7842 73.0011 18.2974C73.0011 21.7695 75.0256 24.2318 78.3637 24.2318ZM88.7409 24.2524C90.6418 24.2524 91.7133 23.2891 92.1408 22.4288L92.2284 22.4288L92.2284 24L94.4177 24L94.4177 16.3554C94.4177 13.007 91.7802 12.3425 89.9515 12.3425C87.8703 12.3425 85.9489 13.1821 85.2019 15.2787L87.3088 15.7578C87.6385 14.9387 88.4782 14.1557 89.9824 14.1557C91.4299 14.1557 92.1717 14.913 92.1717 16.2163L92.1717 16.2678C92.1717 17.0817 91.332 17.0714 89.2612 17.3084C87.0822 17.5659 84.8516 18.1326 84.8516 20.7495C84.8516 23.0109 86.5516 24.2524 88.7409 24.2524ZM89.2251 22.4546C87.9579 22.4546 87.0461 21.8879 87.0461 20.7804C87.0461 19.5801 88.1073 19.1526 89.4054 18.9774C90.1318 18.8847 91.8575 18.6889 92.1769 18.3644L92.1769 19.848C92.1769 21.2131 91.0899 22.4546 89.2251 22.4546ZM99.5293 8.65408L97.2885 8.65408L97.2885 24L99.5293 24L99.5293 8.65408Z" fill="#050403" fill-opacity="1.000000" fill-rule="evenodd"/>
	<rect id="Image [logo-symbol]" width="32.000000" height="32.000000" fill="#FFFFFF" fill-opacity="0"/>
	<g clip-path="url(#clip5_1272)">
		<mask id="mask5_1281" mask-type="alpha" maskUnits="userSpaceOnUse" x="0.000000" y="0.000000" width="32.000000" height="32.000000">
			<path id="Vector" d="M0 0L32 0L32 32L0 32L0 0Z" fill="#000000" fill-opacity="1.000000" fill-rule="evenodd"/>
		</mask>
		<g mask="url(#mask5_1281)">
			<mask id="mask5_1278" mask-type="alpha" maskUnits="userSpaceOnUse" x="0.000000" y="0.000000" width="32.000000" height="32.000000">
				<path id="Vector" d="M0 0L32 0L32 32L0 32L0 0Z" fill="#000000" fill-opacity="1.000000" fill-rule="evenodd"/>
			</mask>
			<g mask="url(#mask5_1278)">
				<path id="Vector" d="M8 38C-4.15027 38 -14 28.1503 -14 16C-14 3.84973 -4.15027 -6 8 -6C20.1503 -6 30 3.84973 30 16C30 28.1503 20.1503 38 8 38Z" stroke="#050403" stroke-opacity="1.000000" stroke-width="4.000000"/>
				<path id="Vector" d="M8 30C0.268021 30 -6 23.732 -6 16C-6 8.26801 0.268021 2 8 2C15.732 2 22 8.26801 22 16C22 23.732 15.732 30 8 30Z" stroke="#050403" stroke-opacity="1.000000" stroke-width="4.000000"/>
				<path id="Vector" d="M8 22C4.68628 22 2 19.3137 2 16C2 12.6863 4.68628 10 8 10C11.3137 10 14 12.6863 14 16C14 19.3137 11.3137 22 8 22Z" stroke="#050403" stroke-opacity="1.000000" stroke-width="4.000000"/>
			</g>
		</g>
	</g>
</svg>
