<svg width="24.000000" height="24.000000" viewBox="0 0 24 24" fill="none" xmlns="http://www.w3.org/2000/svg" xmlns:xlink="http://www.w3.org/1999/xlink">
	<desc>
			Created with Pixso.
	</desc>
	<defs>
		<clipPath id="clip17_5996">
			<rect id="menu" width="24.000000" height="24.000000" fill="white" fill-opacity="0"/>
		</clipPath>
	</defs>
	<g clip-path="url(#clip17_5996)">
		<path id="path" d="M3.99487 6.70483L3.97485 6.72485C3.55481 6.72485 3.22485 6.39478 3.22485 5.97485C3.22485 5.55493 3.55481 5.22485 3.97485 5.22485L3.99487 5.24487L3.99487 6.70483ZM19.9548 5.24487L19.9749 5.22485C20.3949 5.22485 20.7249 5.55493 20.7249 5.97485C20.7249 6.39478 20.3949 6.72485 19.9749 6.72485L19.9548 6.70483L19.9548 5.24487Z" fill="#000000" fill-opacity="0" fill-rule="nonzero"/>
		<path id="path" d="M3.97485 5.97485L19.9749 5.97485" stroke="#808080" stroke-opacity="1.000000" stroke-width="1.500000" stroke-linejoin="round" stroke-linecap="round"/>
		<path id="path" d="M3.99487 12.7048L3.97485 12.7249C3.55481 12.7249 3.22485 12.3948 3.22485 11.9749C3.22485 11.5549 3.55481 11.2249 3.97485 11.2249L3.99487 11.2449L3.99487 12.7048ZM19.9548 11.2449L19.9749 11.2249C20.3949 11.2249 20.7249 11.5549 20.7249 11.9749C20.7249 12.3948 20.3949 12.7249 19.9749 12.7249L19.9548 12.7048L19.9548 11.2449Z" fill="#000000" fill-opacity="0" fill-rule="nonzero"/>
		<path id="path" d="M3.97485 11.9749L19.9749 11.9749" stroke="#808080" stroke-opacity="1.000000" stroke-width="1.500000" stroke-linejoin="round" stroke-linecap="round"/>
		<path id="path" d="M3.99487 18.7048L3.97485 18.7249C3.55481 18.7249 3.22485 18.3948 3.22485 17.9749C3.22485 17.5549 3.55481 17.2249 3.97485 17.2249L3.99487 17.2449L3.99487 18.7048ZM19.9548 17.2449L19.9749 17.2249C20.3949 17.2249 20.7249 17.5549 20.7249 17.9749C20.7249 18.3948 20.3949 18.7249 19.9749 18.7249L19.9548 18.7048L19.9548 17.2449Z" fill="#000000" fill-opacity="0" fill-rule="nonzero"/>
		<path id="path" d="M3.97485 17.9749L19.9749 17.9749" stroke="#808080" stroke-opacity="1.000000" stroke-width="1.500000" stroke-linejoin="round" stroke-linecap="round"/>
	</g>
</svg>
