<svg width="120.000000" height="120.000000" viewBox="0 0 120 120" fill="none" xmlns="http://www.w3.org/2000/svg" xmlns:xlink="http://www.w3.org/1999/xlink">
	<desc>
			Created with Pixso.
	</desc>
	<defs>
		<clipPath id="clip5_1213">
			<rect id="Icon" width="120.000000" height="120.000000" fill="white" fill-opacity="0"/>
		</clipPath>
	</defs>
	<rect id="Icon" width="120.000000" height="120.000000" fill="#FFFFFF" fill-opacity="0"/>
	<g clip-path="url(#clip5_1213)">
		<mask id="mask5_1225" mask-type="alpha" maskUnits="userSpaceOnUse" x="0.000000" y="0.000000" width="120.000000" height="120.000000">
			<path id="Vector" d="M0 0L120 0L120 120L0 120L0 0Z" fill="#000000" fill-opacity="1.000000" fill-rule="evenodd"/>
		</mask>
		<g mask="url(#mask5_1225)">
			<g opacity="0.444173">
				<path id="Vector" d="M60 15.37C84.6313 15.37 104.63 35.3687 104.63 60C104.63 84.6313 84.6313 104.63 60 104.63C35.3687 104.63 15.37 84.6313 15.37 60C15.37 35.3687 35.3687 15.37 60 15.37Z" fill="#FD9A85" fill-opacity="1.000000" fill-rule="nonzero"/>
			</g>
			<path id="Vector" d="M60 20C82.076 20 100 37.924 100 60C100 82.076 82.076 100 60 100C37.924 100 20 82.076 20 60C20 37.924 37.924 20 60 20Z" fill="#FD9A85" fill-opacity="1.000000" fill-rule="nonzero"/>
			<path id="Vector" d="M74.9996 58.2667C76.3329 59.04 76.3329 60.96 74.9996 61.7333L54.0002 73.8529C52.6669 74.6262 51.0002 73.653 51.0002 72.1196L51.0002 47.8802C51.0002 46.3469 52.6669 45.3737 54.0002 46.147L74.9996 58.2667Z" fill="#33110A" fill-opacity="1.000000" fill-rule="nonzero"/>
		</g>
	</g>
</svg>
